<?xml version="1.0" encoding="UTF-8"?>
<svg width="188px" height="53px" viewBox="0 0 188 53" version="1.1" xmlns="http://www.w3.org/2000/svg" xmlns:xlink="http://www.w3.org/1999/xlink">
    <!-- Generator: Sketch 48.2 (47327) - http://www.bohemiancoding.com/sketch -->
    <title>Page 1</title>
    <desc>Created with Sketch.</desc>
    <defs>
        <polygon id="path-1" points="0.583022434 0.74726482 13.8043 0.74726482 13.8043 14 0.583022434 14"></polygon>
        <polygon id="path-3" points="0 52.2458 187.201 52.2458 187.201 -0.0002 0 -0.0002"></polygon>
    </defs>
    <g id="Page-1" stroke="none" stroke-width="1" fill="none" fill-rule="evenodd">
        <g>
            <path d="M59.3847,40.0738 C59.5577,39.9508 59.7157,39.8288 59.8837,39.7228 C61.4647,38.7288 63.4537,38.9098 64.8257,40.1708 C65.0757,40.4008 65.0707,40.3928 65.3497,40.1818 C66.5137,39.3018 67.8167,38.9398 69.2677,39.1418 C70.5917,39.3258 71.6767,39.9528 72.5227,40.9708 C73.2727,41.8738 73.6867,42.9268 73.6957,44.1118 C73.7097,46.1628 73.7077,48.2148 73.7177,50.2658 C73.7197,50.7968 73.5817,51.2558 73.1617,51.6168 C72.6277,52.0778 71.7387,52.0588 71.2247,51.5678 C70.8807,51.2388 70.7277,50.8398 70.7277,50.3728 C70.7277,48.2878 70.7197,46.2038 70.7317,44.1198 C70.7357,43.4028 70.4847,42.8258 69.9067,42.4038 C69.4197,42.0468 68.8707,41.9218 68.2737,42.0408 C67.5387,42.1888 67.0217,42.6138 66.7357,43.3038 C66.6627,43.4808 66.6197,43.6818 66.6187,43.8718 C66.6117,46.0658 66.6147,48.2588 66.6147,50.4518 C66.6147,51.0858 66.2427,51.6518 65.6517,51.8638 C64.8017,52.1678 63.8917,51.6958 63.6837,50.7978 C63.6547,50.6718 63.6417,50.5398 63.6417,50.4098 C63.6387,48.2988 63.6247,46.1868 63.6447,44.0758 C63.6587,42.5738 62.3317,41.9488 61.3097,42.0958 C60.5267,42.2088 59.9567,42.6298 59.6257,43.3508 C59.5647,43.4848 59.5357,43.6448 59.5357,43.7918 C59.5307,45.9858 59.5337,48.1778 59.5307,50.3718 C59.5307,51.0628 59.2137,51.5608 58.5877,51.8558 C58.1317,52.0708 57.4267,51.9308 57.0397,51.5698 C56.7047,51.2578 56.5467,50.8738 56.5467,50.4258 C56.5437,47.2038 56.5417,43.9818 56.5477,40.7608 C56.5487,39.9408 57.1027,39.3248 57.9147,39.2468 C58.4967,39.1908 58.9557,39.4438 59.2877,39.9238 C59.3217,39.9708 59.3507,40.0208 59.3847,40.0738" id="Fill-1" fill="#231F20"></path>
            <path d="M93.3456,40.0821 C93.8526,39.6451 94.4076,39.3631 95.0266,39.2071 C95.5656,39.0721 96.1106,39.0481 96.6586,39.1381 C97.5406,39.2841 98.2966,39.6771 98.9266,40.3111 C99.0076,40.3931 99.0676,40.3791 99.1476,40.3101 C99.5856,39.9291 100.0816,39.6421 100.6216,39.4331 C101.3046,39.1691 102.0116,39.0581 102.7436,39.0951 C103.7826,39.1471 104.7156,39.4851 105.5516,40.0981 C106.2186,40.5871 106.7336,41.2061 107.1056,41.9451 C107.5086,42.7431 107.6636,43.5891 107.6586,44.4781 C107.6476,46.4761 107.6546,48.4731 107.6556,50.4701 C107.6566,51.5601 106.5206,52.2841 105.5396,51.8081 C104.9816,51.5381 104.6906,51.0751 104.6886,50.4541 C104.6826,48.3421 104.6826,46.2301 104.6856,44.1191 C104.6856,43.5411 104.5296,43.0281 104.1096,42.6171 C103.7436,42.2601 103.3066,42.0341 102.7956,42.0071 C101.8326,41.9561 101.1386,42.3821 100.7046,43.2411 C100.5296,43.5881 100.5586,43.9581 100.5616,44.3271 C100.5616,44.3861 100.5696,44.4461 100.5696,44.5061 C100.5706,46.4591 100.5696,48.4131 100.5706,50.3671 C100.5716,50.9941 100.3236,51.4841 99.7646,51.7841 C99.0396,52.1741 98.1616,51.8731 97.7826,51.1911 C97.6346,50.9261 97.5866,50.6441 97.5866,50.3491 C97.5856,48.4111 97.5906,46.4741 97.5816,44.5361 C97.5796,44.1651 97.5696,43.7851 97.4926,43.4241 C97.3526,42.7631 96.8606,42.3971 96.2606,42.1941 C95.5026,41.9371 94.7866,42.0691 94.1616,42.5771 C93.7106,42.9441 93.4626,43.4111 93.4656,44.0171 C93.4766,46.1931 93.4756,48.3701 93.4706,50.5471 C93.4686,51.3271 92.7006,52.0091 91.9136,51.9561 C91.0986,51.9001 90.5006,51.2561 90.5016,50.4391 C90.5016,47.2231 90.5016,44.0071 90.5016,40.7901 C90.5016,39.9241 91.0676,39.2931 91.9316,39.2441 C92.4486,39.2141 92.8806,39.4281 93.1916,39.8561 C93.2416,39.9241 93.2866,39.9961 93.3456,40.0821" id="Fill-3" fill="#231F20"></path>
            <path d="M29.7582,45.5963 C29.7582,43.9963 29.7582,42.3963 29.7582,40.7973 C29.7582,40.1953 30.0062,39.7283 30.5312,39.4243 C31.2072,39.0313 32.1292,39.2793 32.5172,39.9593 C32.5772,40.0643 32.6122,40.0773 32.7092,39.9983 C33.3012,39.5103 33.9842,39.2133 34.7422,39.1203 C35.9142,38.9783 36.9672,39.2793 37.8822,40.0373 C37.9782,40.1163 38.0752,40.1953 38.1582,40.2873 C38.2472,40.3883 38.3192,40.3893 38.4182,40.3033 C38.8532,39.9263 39.3432,39.6393 39.8802,39.4343 C40.7342,39.1063 41.6132,39.0093 42.5202,39.1463 C43.3672,39.2753 44.1372,39.5903 44.8222,40.1033 C45.8522,40.8743 46.5182,41.8893 46.7852,43.1493 C46.8672,43.5333 46.9102,43.9333 46.9122,44.3273 C46.9252,46.3573 46.9182,48.3873 46.9182,50.4163 C46.9182,51.1163 46.5622,51.6383 45.9632,51.8583 C45.0662,52.1893 44.1742,51.6533 43.9822,50.7723 C43.9552,50.6513 43.9462,50.5253 43.9462,50.4003 C43.9442,48.3003 43.9392,46.1993 43.9462,44.0983 C43.9502,43.1113 43.4192,42.4683 42.6622,42.1513 C41.5742,41.6953 40.2802,42.2783 39.9042,43.3973 C39.8322,43.6133 39.8232,43.8563 39.8202,44.0873 C39.8122,44.5443 39.8342,45.0013 39.8342,45.4583 C39.8372,47.1123 39.8362,48.7663 39.8352,50.4213 C39.8352,51.2313 39.2582,51.8703 38.4612,51.9483 C37.6172,52.0313 36.8582,51.3383 36.8582,50.4853 C36.8582,48.4113 36.8582,46.3383 36.8582,44.2653 C36.8582,43.9053 36.8342,43.5473 36.6932,43.2093 C36.4742,42.6863 36.0532,42.3833 35.5422,42.2013 C34.5282,41.8423 33.4452,42.2543 32.9052,43.1893 C32.7642,43.4333 32.7282,43.7023 32.7282,43.9753 C32.7262,46.1573 32.7292,48.3393 32.7302,50.5213 C32.7312,51.4463 31.7572,52.1563 30.8642,51.9063 C30.2372,51.7303 29.7532,51.1313 29.7562,50.4123 C29.7632,48.8073 29.7582,47.2013 29.7582,45.5963" id="Fill-5" fill="#231F20"></path>
            <path d="M23.3583,45.5885 C23.3563,43.6195 21.7483,42.0245 19.7573,42.0305 C17.8163,42.0375 16.2383,43.6095 16.2083,45.5385 C16.1763,47.5705 17.7843,49.1945 19.8033,49.1835 C21.8163,49.1725 23.3613,47.5495 23.3583,45.5885 M23.4993,40.1355 C23.6433,39.9605 23.7663,39.7805 23.9183,39.6305 C24.4563,39.0965 25.4023,39.1165 25.9343,39.6545 C26.2483,39.9735 26.3943,40.3485 26.3933,40.7955 C26.3903,44.0265 26.3923,47.2595 26.3913,50.4915 C26.3903,51.1395 25.9383,51.6935 25.3443,51.8855 C24.6833,52.0985 23.9073,51.7905 23.5813,51.1425 C23.5693,51.1195 23.5493,51.0995 23.5223,51.0635 C22.4863,51.7475 21.3593,52.1555 20.0893,52.2025 C20.1353,52.2135 20.1593,52.2195 20.2283,52.2365 L19.3813,52.2365 C19.3793,52.2325 19.3793,52.2285 19.3783,52.2235 C19.4043,52.2185 19.4323,52.2135 19.4593,52.2085 C16.5483,51.9315 14.4653,50.4765 13.5283,47.6975 C12.6443,45.0725 13.2943,42.7045 15.2893,40.7665 C16.3913,39.6965 17.7513,39.1305 19.2883,39.0155 C20.8243,38.9015 22.2293,39.2935 23.4993,40.1355" id="Fill-7" fill="#231F20"></path>
            <g id="Group-11" transform="translate(110.000000, 38.245800)">
                <mask id="mask-2" fill="white">
                    <use xlink:href="#path-1"></use>
                </mask>
                <g id="Clip-10"></g>
                <path d="M7.2353,3.7856 C5.2383,3.7626 3.6803,5.3446 3.6203,7.2346 C3.5553,9.2716 5.1413,10.9136 7.1443,10.9376 C9.1693,10.9606 10.7443,9.3826 10.7733,7.3816 C10.8013,5.4206 9.2013,3.8096 7.2353,3.7856 M10.9483,12.8156 C10.7933,12.9076 10.6543,12.9886 10.5173,13.0716 C9.8763,13.4606 9.1803,13.7036 8.4513,13.8556 C8.2293,13.9026 8.0003,13.9206 7.7733,13.9406 C7.4853,13.9666 7.1913,14.0246 6.9093,13.9896 C6.3763,13.9226 5.8443,13.8246 5.3243,13.6946 C4.6513,13.5266 4.0393,13.2106 3.4663,12.8196 C2.4263,12.1106 1.6563,11.1756 1.1453,10.0286 C0.7993,9.2526 0.6163,8.4366 0.5873,7.5856 C0.5483,6.4516 0.7753,5.3686 1.2963,4.3666 C2.0623,2.8916 3.2183,1.8276 4.7713,1.2086 C5.8343,0.7856 6.9353,0.6586 8.0643,0.8066 C9.0543,0.9356 9.9763,1.2696 10.8073,1.8326 C10.9023,1.8976 10.9533,1.8946 11.0083,1.7866 C11.3063,1.2026 11.9473,0.9246 12.5383,1.0086 C13.2563,1.1106 13.8043,1.7456 13.8043,2.4946 C13.8033,5.7226 13.8033,8.9486 13.8033,12.1756 C13.8043,12.8866 13.4043,13.4386 12.7223,13.6476 C12.0773,13.8466 11.3733,13.5566 11.0313,12.9666 C11.0073,12.9246 10.9843,12.8816 10.9483,12.8156" id="Fill-9" fill="#231F20" mask="url(#mask-2)"></path>
            </g>
            <path d="M158.6073,44.1056 C158.4363,43.7286 158.2283,43.4146 157.9713,43.1326 C157.5293,42.6476 156.9883,42.3156 156.3603,42.1386 C155.9013,42.0096 155.4253,41.9866 154.9553,42.0696 C154.3163,42.1826 153.7533,42.4576 153.2683,42.8956 C152.7763,43.3396 152.4223,43.8736 152.2423,44.5076 C151.8433,45.9096 152.1393,47.1486 153.2053,48.1566 C153.9273,48.8396 154.8083,49.1416 155.8103,49.1016 C156.2963,49.0826 156.7763,49.0456 157.2273,48.8596 C157.4743,48.7576 157.7023,48.6056 157.9313,48.4616 C158.2023,48.2916 158.4693,48.1156 158.8003,48.0856 C159.4293,48.0286 159.9923,48.3906 160.2233,49.0206 C160.3993,49.4986 160.3213,49.9276 159.9483,50.3026 C159.2683,50.9866 158.4663,51.4686 157.5483,51.7436 C156.5433,52.0456 155.5183,52.1236 154.4743,51.9536 C152.9633,51.7076 151.7293,50.9836 150.7433,49.8276 C150.2453,49.2446 149.8863,48.5786 149.6363,47.8536 C149.2653,46.7796 149.1683,45.6786 149.3383,44.5586 C149.5603,43.1036 150.1793,41.8396 151.2393,40.8096 C151.9133,40.1536 152.6983,39.6746 153.6023,39.3876 C154.5243,39.0956 155.4583,39.0146 156.4153,39.1576 C157.6613,39.3436 158.7473,39.8586 159.6843,40.7016 C160.3993,41.3446 160.9443,42.1076 161.3073,42.9916 C161.6323,43.7836 161.8583,44.6076 161.7973,45.4766 C161.7463,46.2166 161.3643,46.7336 160.6543,46.9776 C160.4943,47.0326 160.3133,47.0436 160.1413,47.0436 C158.1333,47.0486 156.1253,47.0466 154.1173,47.0456 C153.5053,47.0456 153.0183,46.8116 152.7163,46.2636 C152.2903,45.4886 152.7033,44.4186 153.6103,44.1836 C153.7553,44.1466 153.9083,44.1186 154.0573,44.1186 C155.5153,44.1136 156.9743,44.1156 158.4323,44.1146 C158.4803,44.1146 158.5273,44.1096 158.6073,44.1056" id="Fill-12" fill="#231F20"></path>
            <path d="M180.7973,39.0465 C182.0363,39.0285 182.8723,39.1635 183.6663,39.5105 C184.4523,39.8545 185.1303,40.3385 185.6173,41.0565 C185.8633,41.4205 186.0063,41.8195 185.9493,42.2705 C185.9053,42.6145 185.7263,42.8825 185.4953,43.1315 C185.0843,43.5745 184.0853,43.8525 183.4323,43.1985 C183.0843,42.8505 182.7143,42.5195 182.2703,42.2855 C181.9253,42.1045 181.5603,42.0095 181.1773,42.0065 C180.7493,42.0035 180.3193,42.0365 179.9093,42.1815 C179.5743,42.2995 179.3133,42.4865 179.2743,42.8815 C179.2333,43.3045 179.3523,43.5585 179.7583,43.6955 C180.2083,43.8485 180.6713,43.9695 181.1373,44.0605 C182.0573,44.2395 182.9873,44.3735 183.8623,44.7265 C184.6443,45.0415 185.3163,45.5015 185.7373,46.2605 C185.9953,46.7245 186.1163,47.2275 186.1533,47.7525 C186.1993,48.4105 186.1273,49.0535 185.8643,49.6665 C185.5583,50.3775 185.0613,50.9215 184.4083,51.3285 C183.6663,51.7895 182.8483,52.0075 181.9883,52.1205 C181.0133,52.2485 180.0543,52.1615 179.1103,51.9305 C178.2503,51.7195 177.4173,51.4235 176.6983,50.8805 C176.2613,50.5495 175.9073,50.1505 175.7763,49.6005 C175.6603,49.1085 175.6993,48.6075 175.9673,48.1855 C176.1023,47.9735 176.3883,47.8375 176.6303,47.7155 C177.0823,47.4885 177.5243,47.5975 177.9253,47.8625 C178.2733,48.0925 178.6013,48.3535 178.9403,48.5995 C179.4543,48.9735 180.0453,49.1415 180.6663,49.2145 C181.1423,49.2705 181.6193,49.2765 182.0903,49.1555 C182.4023,49.0765 182.7033,48.9635 182.8653,48.6655 C183.0873,48.2575 182.9203,47.8025 182.4443,47.6155 C182.0443,47.4595 181.6193,47.3495 181.1953,47.2725 C180.2243,47.0935 179.2443,46.9565 178.3353,46.5475 C177.5793,46.2085 176.9513,45.7155 176.5623,44.9635 C176.3233,44.5005 176.2033,44.0025 176.1573,43.4865 C176.0863,42.6945 176.2283,41.9415 176.6013,41.2355 C177.0603,40.3675 177.7903,39.8135 178.6883,39.4645 C179.4863,39.1555 180.3233,39.0565 180.7973,39.0465" id="Fill-14" fill="#231F20"></path>
            <path d="M140.6615,43.6959 C140.7715,43.6559 140.8685,43.6289 140.9575,43.5869 C141.8675,43.1699 142.6365,42.5729 143.2355,41.7689 C143.5055,41.4069 143.7215,41.0119 143.8475,40.5739 C143.9985,40.0459 144.2775,39.6179 144.8025,39.3879 C145.7865,38.9569 146.7495,39.6889 146.8105,40.6149 C146.8555,41.3009 146.5915,41.8989 146.2515,42.4679 C145.8135,43.2039 145.2805,43.8669 144.6735,44.4699 C144.4165,44.7239 144.1455,44.9639 143.8615,45.2299 C144.0415,45.3859 144.1785,45.4999 144.3085,45.6189 C144.8275,46.0899 145.3625,46.5429 145.8545,47.0389 C146.4425,47.6309 146.8425,48.3479 147.0505,49.1579 C147.1775,49.6529 147.2635,50.1599 147.1915,50.6739 C147.1035,51.3079 146.6645,51.7709 146.0885,51.8059 C145.4375,51.8469 144.8745,51.5949 144.5395,50.9379 C144.4095,50.6829 144.3325,50.4009 144.2155,50.1389 C143.9655,49.5809 143.6425,49.0709 143.2275,48.6159 C142.7295,48.0709 142.1565,47.6359 141.4715,47.3609 C141.2185,47.2579 140.9525,47.1869 140.6735,47.0959 C140.6635,47.1649 140.6545,47.1989 140.6545,47.2339 C140.6535,48.3109 140.6575,49.3889 140.6525,50.4669 C140.6485,51.3879 139.7965,52.1099 138.8935,51.9319 C138.1715,51.7909 137.6805,51.2109 137.6805,50.4869 C137.6785,46.5789 137.6795,42.6719 137.6785,38.7639 C137.6785,38.1429 138.0685,37.5919 138.6695,37.3739 C139.2455,37.1649 139.9205,37.3539 140.3055,37.8289 C140.5395,38.1179 140.6535,38.4489 140.6535,38.8189 C140.6545,40.4029 140.6535,41.9869 140.6535,43.5699 C140.6535,43.6009 140.6575,43.6329 140.6615,43.6959" id="Fill-16" fill="#231F20"></path>
            <path d="M165.6147,39.295 C165.6147,39.027 165.6057,38.768 165.6167,38.509 C165.6287,38.245 165.6227,37.972 165.6887,37.719 C165.8307,37.173 166.2027,36.851 166.7507,36.697 C167.4697,36.496 168.2577,36.951 168.4917,37.622 C168.5437,37.769 168.5767,37.928 168.5827,38.083 C168.5967,38.43 168.5877,38.779 168.5877,39.127 L168.5877,39.293 L169.6637,39.293 C170.4797,39.293 171.2957,39.292 172.1127,39.293 C172.5597,39.293 172.9547,39.422 173.2757,39.75 C174.0047,40.495 173.7727,41.779 172.7287,42.173 C172.5307,42.248 172.3047,42.275 172.0917,42.276 C170.9647,42.286 169.8387,42.281 168.7127,42.277 C168.6077,42.276 168.5847,42.306 168.5857,42.406 C168.5887,44.148 168.5757,45.889 168.5937,47.63 C168.6017,48.342 169.0547,49.043 169.8647,49.156 C170.1827,49.201 170.5157,49.251 170.8297,49.207 C171.1147,49.167 171.3877,49.012 171.6597,48.893 C171.9537,48.764 172.2447,48.63 172.5737,48.629 C173.1267,48.627 173.5657,48.978 173.6737,49.523 C173.8107,50.213 173.5777,50.783 173.0597,51.237 C172.5367,51.695 171.8927,51.883 171.2267,52.011 C170.3117,52.187 169.3967,52.21 168.5017,51.931 C167.5107,51.623 166.7667,50.992 166.2817,50.069 C165.9567,49.448 165.7527,48.787 165.6887,48.087 C165.6527,47.688 165.6197,47.286 165.6177,46.885 C165.6097,45.427 165.6147,43.969 165.6147,42.51 C165.6147,42.28 165.6147,42.275 165.3897,42.28 C164.9487,42.289 164.5437,42.205 164.1867,41.92 C163.7717,41.588 163.5567,40.858 163.7277,40.355 C163.8987,39.855 164.2247,39.51 164.7247,39.367 C164.9737,39.296 165.2497,39.316 165.5137,39.295 C165.5387,39.294 165.5647,39.295 165.6147,39.295" id="Fill-18" fill="#231F20"></path>
            <path d="M6.1054,45.0763 C6.1054,45.9523 6.0694,46.8303 6.1164,47.7033 C6.1564,48.4303 6.5704,49.0213 7.3844,49.1623 C7.6754,49.2133 7.9844,49.2563 8.2714,49.2123 C8.5734,49.1663 8.8634,49.0253 9.1494,48.9033 C9.4604,48.7703 9.7634,48.6313 10.1114,48.6283 C10.7434,48.6223 11.1744,49.1273 11.2144,49.7083 C11.2724,50.5303 10.8724,51.1073 10.1894,51.5093 C9.6444,51.8313 9.0404,51.9703 8.4184,52.0593 C7.8654,52.1383 7.3164,52.1653 6.7624,52.0903 C5.8774,51.9693 5.0924,51.6353 4.4614,50.9903 C3.9744,50.4933 3.6614,49.8913 3.4434,49.2323 C3.1744,48.4163 3.1244,47.5763 3.1244,46.7273 C3.1254,45.3023 3.1254,43.8763 3.1304,42.4513 C3.1304,42.3143 3.0904,42.2723 2.9534,42.2773 C2.4564,42.2983 1.9964,42.2093 1.6184,41.8413 C1.1174,41.3513 1.0354,40.5213 1.4384,39.9463 C1.7714,39.4703 2.2404,39.2923 2.7974,39.2923 C3.1274,39.2923 3.1244,39.2923 3.1274,38.9573 C3.1304,38.6153 3.1204,38.2713 3.1514,37.9313 C3.2324,37.0203 4.2534,36.4103 5.1114,36.7353 C5.6674,36.9453 6.1194,37.5023 6.0964,38.1853 C6.0854,38.5123 6.0984,38.8383 6.0924,39.1653 C6.0904,39.2733 6.1194,39.2943 6.2314,39.2943 C7.3794,39.2883 8.5284,39.2853 9.6764,39.2953 C10.3554,39.3013 10.8654,39.6183 11.1114,40.2523 C11.4904,41.2243 10.7984,42.2203 9.8654,42.2533 C8.6644,42.2963 7.4614,42.2773 6.2594,42.2773 C6.1324,42.2773 6.0894,42.2943 6.0904,42.4323 C6.0974,43.3133 6.0934,44.1953 6.0934,45.0763 L6.1054,45.0763 Z" id="Fill-20" fill="#231F20"></path>
            <path d="M126.9545,45.588 C126.9545,43.994 126.9535,42.4 126.9545,40.805 C126.9555,40.109 127.3085,39.571 127.9115,39.339 C128.5925,39.077 129.3275,39.327 129.7145,39.966 C129.7845,40.081 129.8395,40.082 129.9465,40.03 C130.3105,39.852 130.6705,39.66 131.0485,39.515 C131.6875,39.271 132.3605,39.237 133.0385,39.273 C133.4945,39.297 133.9155,39.425 134.2685,39.719 C134.8525,40.205 135.1795,40.814 135.0235,41.588 C134.9445,41.979 134.6575,42.24 134.3075,42.427 C133.8855,42.651 133.4365,42.658 132.9745,42.637 C132.5415,42.617 132.1005,42.595 131.6745,42.656 C131.0395,42.747 130.5735,43.119 130.2935,43.702 C130.0625,44.182 129.9395,44.689 129.9405,45.225 C129.9435,46.912 129.9385,48.598 129.9425,50.285 C129.9445,50.798 129.8125,51.249 129.4095,51.595 C128.5475,52.334 127.2585,51.877 127.0025,50.807 C126.9695,50.666 126.9565,50.517 126.9565,50.371 C126.9535,48.776 126.9545,47.182 126.9545,45.588" id="Fill-22" fill="#231F20"></path>
            <path d="M50.349,45.5704 C50.349,43.9814 50.352,42.3924 50.347,40.8044 C50.346,40.2124 50.573,39.7534 51.08,39.4434 C51.625,39.1104 52.366,39.1954 52.831,39.6294 C53.165,39.9414 53.319,40.3224 53.319,40.7724 C53.32,43.9984 53.32,47.2244 53.319,50.4514 C53.318,51.3904 52.481,52.1044 51.562,51.9334 C50.88,51.8064 50.347,51.2144 50.348,50.4664 C50.351,48.8344 50.349,47.2024 50.349,45.5704" id="Fill-24" fill="#231F20"></path>
            <path d="M80.0903,45.6056 C80.0903,47.2596 80.1013,48.9146 80.0843,50.5686 C80.0783,51.1156 79.7053,51.6766 79.0323,51.8856 C78.3433,52.1006 77.6733,51.7686 77.3563,51.2696 C77.1883,51.0066 77.1163,50.7186 77.1163,50.4056 C77.1183,47.2226 77.1203,44.0386 77.1153,40.8546 C77.1143,40.3146 77.2873,39.8676 77.7213,39.5346 C78.4913,38.9416 79.6543,39.2736 79.9793,40.1896 C80.0483,40.3826 80.0803,40.5996 80.0813,40.8056 C80.0893,42.4056 80.0853,44.0056 80.0853,45.6056 L80.0903,45.6056 Z" id="Fill-26" fill="#231F20"></path>
            <path d="M76.9657,37.1456 C76.9627,36.2326 77.6577,35.4816 78.6227,35.4836 C79.5267,35.4856 80.2237,36.2086 80.2447,37.0806 C80.2677,38.0116 79.5557,38.7496 78.6277,38.7736 C77.7247,38.7966 76.9737,38.0446 76.9657,37.1456" id="Fill-28" fill="#231F20"></path>
            <path d="M53.4711,37.1827 C53.4361,38.0907 52.6981,38.7927 51.8001,38.7677 C50.8171,38.7417 50.1591,37.9547 50.1881,37.0917 C50.2211,36.1067 50.9981,35.4547 51.8711,35.4857 C52.8701,35.5207 53.4881,36.3097 53.4711,37.1827" id="Fill-30" fill="#231F20"></path>
            <path d="M91.2582,35.7345 C91.2582,35.7345 92.5782,35.4625 93.2532,34.4365 C93.4782,34.0935 93.6312,33.6685 93.6402,33.1405 C93.9122,30.8275 91.5982,29.8755 90.3482,28.4935 C90.0422,28.1435 89.7522,27.7535 89.5052,27.3155 C88.4692,25.7935 88.4692,23.6165 89.2852,21.9835 C90.5102,19.8065 93.2312,19.1265 95.5452,19.2615 C94.2182,19.5675 93.1972,20.4865 93.0002,21.6725 C92.9342,22.0685 92.9592,22.4935 93.0952,22.9355 C93.3672,23.6165 93.7762,24.1605 94.3202,24.7045 C96.2252,26.0655 97.8582,27.6985 98.1302,30.0115 C98.2662,31.7805 97.4492,33.5495 95.9912,34.4995 C95.6542,34.7595 95.2622,34.9975 94.8082,35.1935 C93.8992,35.5875 92.7382,35.8175 91.2582,35.7345" id="Fill-32" fill="#EC2225"></path>
            <mask id="mask-4" fill="white">
                <use xlink:href="#path-3"></use>
            </mask>
            <g id="Clip-35"></g>
            <polygon id="Fill-34" fill="#EC2225" mask="url(#mask-4)" points="104.071 28.8268 186.915 28.8268 186.915 26.0648 104.071 26.0648"></polygon>
            <polygon id="Fill-36" fill="#EC2225" mask="url(#mask-4)" points="0.024 28.8668 82.55 28.8668 82.55 26.0648 0.024 26.0648"></polygon>
            <path d="M185.1889,1.4371 L186.5239,1.4541 L187.2009,0.0001 L184.8919,0.0001 C183.0529,0.1151 183.1159,1.4051 183.2199,1.9301 L182.4589,1.9301 L182.4589,3.2401 L187.2009,3.2401 L187.2009,1.9301 L184.9829,1.9301 C184.7319,1.5611 185.1889,1.4371 185.1889,1.4371" id="Fill-37" fill="#EC2225" mask="url(#mask-4)"></path>
            <polygon id="Fill-38" fill="#EC2225" mask="url(#mask-4)" points="183.684 14.7258 186.746 14.7258 186.746 4.0218 183.684 4.0218"></polygon>
            <path d="M140.6742,12.0728 C140.6742,12.0728 137.7712,12.5498 137.3182,10.7808 C137.3182,10.7808 137.1362,9.0568 140.6742,9.0108 L140.6742,12.0728 Z M177.9122,12.0958 L175.1912,12.0958 L175.1912,7.3328 L172.2882,7.3328 L172.2882,12.0958 L169.6112,12.0958 L169.6112,7.3328 L166.7092,7.3328 L166.7092,12.0958 L143.3962,12.0958 L143.3962,6.5038 C140.2662,6.3998 134.4152,7.1978 134.3242,11.1428 C134.2342,15.0898 140.4932,14.7718 140.4932,14.7718 C140.9462,17.2208 137.3182,16.8578 137.3182,16.8578 L137.3182,19.0348 C143.2142,19.5338 143.3962,14.7778 143.3962,14.7778 L143.3962,14.7258 L166.7092,14.7258 L169.6112,14.7258 L172.2882,14.7258 L175.1912,14.7258 L177.9122,14.7258 L180.8152,14.7258 L180.8152,12.0958 L180.8152,7.3328 L177.9122,7.3328 L177.9122,12.0958 Z" id="Fill-39" fill="#EC2225" mask="url(#mask-4)"></path>
            <polygon id="Fill-40" fill="#EC2225" mask="url(#mask-4)" points="127.748 14.7718 130.696 14.7718 130.696 2.9338 127.748 2.9338"></polygon>
            <path d="M121.0805,12.2091 C121.0805,12.2091 118.1775,12.6851 117.7245,10.9171 C117.7245,10.9171 117.5425,9.1931 121.0805,9.1471 L121.0805,12.2091 Z M115.0025,10.5991 C114.3675,15.4981 120.9445,14.7541 120.9445,14.7541 C120.3995,16.2341 115.7055,16.3141 115.7055,16.3141 C110.6025,16.5861 110.3305,12.7761 110.3305,12.7761 L107.3825,12.7761 C108.8795,19.1711 115.7735,18.4001 115.7735,18.4001 C123.8475,18.3101 124.0285,14.5001 124.0285,14.5001 L124.0285,6.5621 C124.0285,6.5621 115.6375,5.7001 115.0025,10.5991 Z" id="Fill-41" fill="#EC2225" mask="url(#mask-4)"></path>
            <path d="M8.0634,16.7227 C7.2554,16.7227 6.6004,17.2787 6.6004,17.9647 C6.6004,18.6497 7.2554,19.2057 8.0634,19.2057 C8.8714,19.2057 9.5254,18.6497 9.5254,17.9647 C9.5254,17.2787 8.8714,16.7227 8.0634,16.7227" id="Fill-42" fill="#EC2225" mask="url(#mask-4)"></path>
            <path d="M4.3212,16.7227 C3.5132,16.7227 2.8592,17.2787 2.8592,17.9647 C2.8592,18.6497 3.5132,19.2057 4.3212,19.2057 C5.1292,19.2057 5.7842,18.6497 5.7842,17.9647 C5.7842,17.2787 5.1292,16.7227 4.3212,16.7227" id="Fill-43" fill="#EC2225" mask="url(#mask-4)"></path>
            <path d="M122.0614,5.4171 C122.8694,5.4171 123.5234,4.8611 123.5234,4.1751 C123.5234,3.4891 122.8694,2.9341 122.0614,2.9341 C121.2534,2.9341 120.5984,3.4891 120.5984,4.1751 C120.5984,4.8611 121.2534,5.4171 122.0614,5.4171" id="Fill-44" fill="#EC2225" mask="url(#mask-4)"></path>
            <path d="M118.3193,5.4171 C119.1273,5.4171 119.7823,4.8611 119.7823,4.1751 C119.7823,3.4891 119.1273,2.9341 118.3193,2.9341 C117.5113,2.9341 116.8563,3.4891 116.8563,4.1751 C116.8563,4.8611 117.5113,5.4171 118.3193,5.4171" id="Fill-45" fill="#EC2225" mask="url(#mask-4)"></path>
            <path d="M48.5497,15.753 C47.7417,15.753 47.0867,16.309 47.0867,16.995 C47.0867,17.68 47.7417,18.236 48.5497,18.236 C49.3577,18.236 50.0117,17.68 50.0117,16.995 C50.0117,16.309 49.3577,15.753 48.5497,15.753" id="Fill-46" fill="#EC2225" mask="url(#mask-4)"></path>
            <path d="M44.8075,15.753 C43.9995,15.753 43.3455,16.309 43.3455,16.995 C43.3455,17.68 43.9995,18.236 44.8075,18.236 C45.6155,18.236 46.2705,17.68 46.2705,16.995 C46.2705,16.309 45.6155,15.753 44.8075,15.753" id="Fill-47" fill="#EC2225" mask="url(#mask-4)"></path>
            <path d="M81.0873,5.8253 C81.8953,5.8253 82.5503,5.2693 82.5503,4.5833 C82.5503,3.8983 81.8953,3.3423 81.0873,3.3423 C80.2793,3.3423 79.6243,3.8983 79.6243,4.5833 C79.6243,5.2693 80.2793,5.8253 81.0873,5.8253" id="Fill-48" fill="#EC2225" mask="url(#mask-4)"></path>
            <path d="M77.3451,5.8253 C78.1531,5.8253 78.8081,5.2693 78.8081,4.5833 C78.8081,3.8983 78.1531,3.3423 77.3451,3.3423 C76.5371,3.3423 75.8831,3.8983 75.8831,4.5833 C75.8831,5.2693 76.5371,5.8253 77.3451,5.8253" id="Fill-49" fill="#EC2225" mask="url(#mask-4)"></path>
            <path d="M61.7548,10.6695 C62.0718,8.8325 65.1338,9.0825 65.1338,9.0825 L65.1338,12.0955 L63.3278,12.0955 C62.4418,11.9575 61.5958,11.5885 61.7548,10.6695 Z M27.0928,10.7405 C27.4108,8.9035 30.4728,9.1525 30.4728,9.1525 L30.4728,12.0955 L28.3088,12.0955 C27.5688,11.9165 26.9558,11.5345 27.0928,10.7405 Z M90.1018,12.0955 L80.5768,12.0955 L80.5768,7.2535 L77.6508,7.2535 L77.6508,12.0955 L68.0368,12.0955 L68.0368,6.4285 C58.2978,6.2415 58.8888,11.2665 59.0528,12.0955 L48.1588,12.0955 L48.1588,7.2875 L45.1988,7.2875 L45.1988,12.0955 L33.3758,12.0955 L33.3758,6.4995 C23.8828,6.3165 24.2048,11.0855 24.3788,12.0955 L17.5778,12.0955 L12.7468,6.0185 C12.7468,6.0185 11.5218,4.6345 9.6398,5.6325 C7.7568,6.6305 6.4638,7.2425 6.4638,7.2425 C6.4638,7.2425 3.7198,8.9205 6.7138,10.8935 C7.8658,11.6525 8.4048,12.0045 8.6338,12.1515 C8.8818,12.3945 9.7068,13.3645 7.5528,13.8195 C5.0808,14.3405 3.2898,13.4795 3.1078,12.2765 C2.9268,11.0755 3.1078,10.8255 3.1078,10.8255 L0.0458,10.8025 C0.0458,10.8025 -0.6342,14.3635 3.2548,15.7925 C7.1448,17.2205 11.4768,14.9535 11.9068,13.8195 C11.9068,13.8195 12.6778,12.4815 11.6348,11.5055 C10.5918,10.5305 9.0048,9.2155 9.0048,9.2155 C9.0048,9.2155 8.5008,9.0345 9.2538,8.5355 C10.0068,8.0365 10.2968,7.8095 10.7738,8.1725 C11.2498,8.5355 15.9218,14.7715 15.9218,14.7715 L17.6678,14.7545 L24.5308,14.7545 L33.3758,14.7545 L45.1988,14.7545 L48.1588,14.7545 L90.1018,14.7545 L93.0268,14.7545 L93.0268,12.0955 L93.0268,2.9675 L90.1018,2.9675 L90.1018,12.0955 Z" id="Fill-50" fill="#EC2225" mask="url(#mask-4)"></path>
            <polygon id="Fill-51" fill="#EC2225" mask="url(#mask-4)" points="97.109 14.7548 100.035 14.7548 100.035 2.9678 97.109 2.9678"></polygon>
        </g>
    </g>
</svg>